<?xml version="1.0" standalone="no"?>
<!DOCTYPE svg PUBLIC "-//W3C//DTD SVG 20010904//EN"
 "http://www.w3.org/TR/2001/REC-SVG-20010904/DTD/svg10.dtd">
<svg version="1.0" xmlns="http://www.w3.org/2000/svg"
 width="300.000000pt" height="300.000000pt" viewBox="0 0 300.000000 300.000000"
 preserveAspectRatio="xMidYMid meet">
<metadata>
Created by potrace 1.10, written by Peter Selinger 2001-2011
</metadata>
<g transform="translate(0.000000,300.000000) scale(0.100000,-0.100000)"
fill="#000000" stroke="none">
<path d="M1235 2256 c-109 -28 -171 -72 -209 -147 -56 -113 -21 -237 97 -345
34 -31 118 -95 186 -143 219 -151 276 -224 269 -336 -8 -122 -79 -171 -235
-163 -100 5 -145 23 -206 83 -68 66 -117 196 -117 313 0 35 -4 52 -12 52 -17
0 -14 -473 2 -478 5 -2 10 6 10 17 0 49 73 53 173 9 62 -27 86 -32 179 -36 90
-3 119 -1 178 17 133 41 197 138 188 286 -9 130 -69 204 -291 353 -206 139
-263 205 -274 317 -11 107 44 165 163 173 68 4 80 2 139 -27 106 -52 163 -139
179 -273 14 -116 26 -56 26 132 0 105 -4 190 -8 190 -4 0 -13 -13 -19 -30 -9
-25 -17 -30 -42 -30 -18 0 -54 11 -81 25 -102 52 -199 65 -295 41z m-92 -108
c-4 -13 -8 -50 -8 -83 1 -128 69 -210 308 -374 190 -129 246 -197 255 -309 6
-74 -14 -137 -60 -185 -21 -22 -41 -37 -44 -34 -4 3 1 24 10 47 22 54 20 135
-4 188 -30 67 -113 146 -272 259 -171 122 -231 179 -264 248 -40 83 -29 162
30 233 33 38 62 44 49 10z m-63 -949 c0 -5 -9 -9 -20 -9 -16 0 -20 7 -20 33
l1 32 19 -24 c11 -13 20 -27 20 -32z"/>
<path d="M1760 2167 c0 -15 10 -26 33 -36 52 -24 131 -110 165 -182 60 -125
76 -323 41 -489 -27 -131 -114 -257 -209 -305 -54 -27 -93 -65 -67 -65 38 0
179 53 233 88 152 99 227 256 226 477 0 276 -111 445 -336 514 -85 26 -86 26
-86 -2z m219 -107 c53 -39 99 -104 130 -183 19 -50 25 -86 29 -188 5 -148 -6
-213 -53 -307 -31 -62 -118 -163 -130 -151 -3 3 11 37 30 75 51 101 70 195 69
344 -1 176 -30 278 -115 408 -26 40 -14 41 40 2z"/>
<path d="M1293 2140 c-61 -25 -50 -118 24 -200 25 -28 49 -50 55 -50 7 0 8 35
3 103 -4 64 -3 112 4 130 10 27 10 27 -27 26 -20 0 -47 -4 -59 -9z m37 -92
c-1 -49 -2 -51 -15 -34 -15 20 -20 67 -8 79 16 17 23 3 23 -45z"/>
<path d="M1204 1574 c3 -9 6 -87 6 -174 l0 -158 43 -21 c24 -12 62 -21 85 -21
l43 0 -3 137 -3 137 -80 58 c-84 60 -101 68 -91 42z m100 -99 c25 -23 26 -29
26 -125 0 -94 -1 -100 -21 -100 -11 0 -29 5 -40 10 -17 10 -19 22 -19 125 0
127 5 135 54 90z"/>
<path d="M831 946 c-15 -18 -7 -34 25 -46 37 -14 30 -34 -8 -26 -31 6 -32 5
-16 -11 14 -14 22 -15 43 -5 34 15 32 37 -5 52 -37 15 -40 34 -5 27 16 -3 24
0 22 7 -6 17 -42 19 -56 2z"/>
<path d="M961 917 c-24 -55 -27 -81 -7 -54 17 21 42 22 54 1 20 -37 18 4 -3
51 l-23 50 -21 -48z"/>
<path d="M1077 953 c-8 -14 -4 -93 4 -93 5 0 9 8 9 17 0 14 4 12 25 -7 24 -22
37 -16 14 7 -8 8 -7 16 2 31 10 17 10 23 0 36 -14 17 -47 22 -54 9z"/>
<path d="M1220 950 c0 -6 -9 -29 -19 -50 -11 -22 -16 -42 -11 -45 4 -3 10 2
14 10 7 20 36 19 52 -2 20 -26 17 -1 -6 51 -19 44 -30 58 -30 36z"/>
<path d="M1320 913 c0 -32 4 -53 11 -53 7 0 8 12 4 33 -8 34 -4 32 33 -17 l22
-29 0 57 c0 38 -4 55 -11 50 -6 -3 -8 -17 -5 -30 4 -14 2 -24 -4 -24 -5 0 -10
3 -10 8 0 4 -9 18 -20 32 l-20 25 0 -52z"/>
<path d="M1441 955 c0 -5 6 -19 14 -29 8 -11 15 -30 15 -43 0 -13 5 -23 10
-23 6 0 10 10 10 23 0 13 7 32 15 43 22 29 17 43 -5 15 l-20 -23 -20 23 c-10
13 -19 20 -19 14z"/>
<path d="M1583 910 c-12 -27 -17 -50 -12 -50 5 0 9 5 9 10 0 17 42 11 56 -7 7
-10 14 -13 14 -7 0 11 -39 104 -43 104 -2 0 -13 -22 -24 -50z"/>
<path d="M1780 910 c0 -46 2 -50 24 -50 27 0 56 24 56 46 0 21 -37 54 -60 54
-17 0 -20 -7 -20 -50z m57 14 c8 -20 -8 -48 -31 -52 -12 -3 -16 4 -16 32 0 30
4 36 20 36 11 0 23 -7 27 -16z"/>
<path d="M1910 910 c0 -36 4 -50 14 -50 8 0 21 -3 30 -6 9 -3 16 -1 16 5 0 6
-11 11 -25 11 -36 0 -33 30 3 31 27 1 27 1 3 8 -34 9 -39 31 -7 31 14 0 26 5
26 10 0 6 -13 10 -30 10 -29 0 -30 -1 -30 -50z"/>
<path d="M2021 953 c0 -5 10 -30 23 -57 l22 -50 23 53 c12 29 20 55 17 59 -3
3 -13 -12 -23 -34 l-16 -39 -16 37 c-14 33 -32 51 -30 31z"/>
<path d="M2160 905 c0 -32 3 -55 6 -52 4 4 7 27 7 52 0 25 -3 48 -7 52 -3 3
-6 -20 -6 -52z"/>
</g>
</svg>
